<svg id="Capa_1" enable-background="new 0 0 512 512" height="512" viewBox="0 0 512 512" width="512" xmlns="http://www.w3.org/2000/svg"><g><path d="m57.388 287.79c-2.368 0-4.698-1.116-6.16-3.203-31.798-45.371-43.928-92.799-48.505-124.598-3.092-21.483-2.997-37.558-2.373-47.259.893-13.884 3.313-23.109 7.192-27.419 4.296-4.773 8.809-5.337 11.832-4.974 9.182 1.109 14.824 11.622 20.797 22.752 2.15 4.006 4.181 7.79 6.023 10.389 7.082 9.986 15.171 15.292 15.252 15.344 3.474 2.252 4.484 6.896 2.244 10.378-2.239 3.482-6.862 4.503-10.352 2.277-.426-.272-10.539-6.806-19.403-19.305-2.384-3.362-4.63-7.546-7.007-11.976-2.199-4.098-6.006-11.192-8.626-14.014-2.533 5.743-5.658 28.659-.468 63.271 4.465 29.774 16.018 74.156 45.701 116.51 2.382 3.398 1.558 8.085-1.841 10.466-1.312.919-2.816 1.361-4.306 1.361z" fill="#e0dbf1"/><path d="m454.612 287.79c-1.49 0-2.994-.441-4.306-1.362-3.399-2.382-4.223-7.068-1.841-10.466 29.683-42.355 41.236-86.737 45.701-116.51 5.19-34.613 2.065-57.528-.468-63.271-2.62 2.823-6.426 9.917-8.626 14.014-2.378 4.431-4.623 8.615-7.007 11.977-8.864 12.499-18.977 19.033-19.403 19.304-3.5 2.232-8.145 1.207-10.378-2.291-2.229-3.493-1.21-8.129 2.273-10.366.213-.139 8.226-5.44 15.248-15.341 1.843-2.599 3.874-6.383 6.023-10.389 5.973-11.131 11.615-21.644 20.797-22.752 3.025-.364 7.537.201 11.832 4.974 3.879 4.31 6.299 13.535 7.192 27.419.624 9.701.719 25.776-2.373 47.259-4.577 31.798-16.707 79.227-48.505 124.599-1.461 2.086-3.792 3.202-6.159 3.202z" fill="#e0dbf1"/><path d="m108.514 345.968c21.063 23.191 42.795 41.706 64.592 55.029 27.681 16.919 55.57 25.498 82.894 25.498s55.213-8.579 82.894-25.498c21.797-13.323 43.529-31.837 64.592-55.029 35.646-39.248 50.939-70.425 51.824-72.051.6-1.102 6.823-18.81 6.823-20.065v-118.709c0-2.855-1.618-5.463-4.176-6.732-.303-.151-30.818-15.23-70.553-30.08-53.707-20.071-97.918-30.248-131.404-30.248-79.419 0-196.991 57.865-201.957 60.328-2.558 1.269-4.176 3.877-4.176 6.732v118.709c0 1.255 6.488 22.048 7.088 23.15.885 1.626 15.913 29.718 51.559 68.966z" fill="#94d5ff"/><g fill="#5cc5ff"><g><path d="m121.533 156.754c.868-.31 87.317-30.94 134.467-30.94s133.599 30.631 134.467 30.94c.836.298 1.689.439 2.529.439 3.094 0 5.993-1.922 7.092-5.002 1.397-3.917-.646-8.223-4.562-9.62-.222-.079-22.567-8.024-50.619-15.849-37.978-10.594-67.89-15.966-88.906-15.966-49.757 0-135.883 30.516-139.525 31.815-3.916 1.397-5.959 5.704-4.562 9.62 1.395 3.917 5.702 5.959 9.619 4.563z"/><path d="m411.797 208.517c-.247-.068-25.084-6.858-56.415-13.549-42.296-9.033-75.734-13.613-99.382-13.613s-57.086 4.58-99.382 13.613c-31.331 6.691-56.168 13.482-56.415 13.549-4.01 1.1-6.369 5.243-5.269 9.252 1.1 4.011 5.243 6.372 9.253 5.27.971-.266 97.727-26.627 151.814-26.627s150.843 26.361 151.814 26.627c.667.183 1.337.27 1.996.27 3.307 0 6.34-2.196 7.257-5.54 1.098-4.009-1.261-8.152-5.271-9.252z"/><path d="m377.233 315.538c-.618.317-62.483 31.668-121.233 31.668s-120.616-31.351-121.231-31.667c-3.701-1.9-8.238-.439-10.137 3.26s-.439 8.238 3.26 10.137c2.651 1.361 65.652 33.329 128.108 33.329s125.456-31.968 128.107-33.329c3.698-1.899 5.157-6.435 3.26-10.134-1.896-3.699-6.433-5.161-10.134-3.264z"/><path d="m408.148 254.692c-.983.18-98.924 18.069-152.148 18.069-53.207 0-151.165-17.888-152.149-18.069-4.081-.747-7.999 1.951-8.749 6.033s1.951 7.998 6.032 8.749c4.069.748 100.284 18.316 154.865 18.316s150.796-17.568 154.865-18.316c4.082-.751 6.782-4.667 6.032-8.749-.749-4.083-4.669-6.78-8.748-6.033z"/></g><path d="m403.486 336.968c-21.063 23.191-42.796 41.706-64.592 55.029-27.681 16.919-55.57 25.498-82.894 25.498s-55.213-8.579-82.894-25.498c-21.797-13.323-43.529-31.837-64.592-55.029-35.646-39.248-56.848-77.897-57.733-79.523-.6-1.102-.914-2.338-.914-3.592v26.423c0 1.255.315 2.49.914 3.592.885 1.626 22.086 40.275 57.733 79.523 21.063 23.191 42.796 41.706 64.592 55.029 27.681 16.919 55.57 25.498 82.894 25.498s55.213-8.579 82.894-25.498c21.797-13.323 43.529-31.837 64.592-55.029 35.646-39.248 56.848-77.897 57.733-79.523.6-1.102.914-2.338.914-3.592v-26.423c0 1.255-.315 2.49-.914 3.592-.886 1.625-22.087 40.275-57.733 79.523z"/></g></g></svg>